# xmcd
#
# Track frame offsets:
#	150
#	14428
#	26540
#	42168
#	55433
#	66485
#	77357
#	92399
#	109376
#	122505
#	138287
#	149753
#	164310
#	176052
#	189563
#	211503
#	225491
#
# Disc length: 3211 seconds
#
# Revision: 0
# Processed by: cddbd v1.5.2PL0 Copyright (c) Steve Scherf et al.
# Submitted via: EZCDAudioConverter 2.1.5.1
#
DISCID=e40c8911
DTITLE=Doctor's Order - Mean Business - 15th Anniversary 
DYEAR=2013
DGENRE=
TTITLE0=Doctor's Order - Serious
TTITLE1=Doctor's Order - And The Show Goes On
TTITLE2=Doctor's Order - If You Don´t Shut Up (I´ll Find Somebody Who Will)
TTITLE3=Doctor's Order feat Mungo Jerry - Gonna Bop Till I Drop
TTITLE4=Doctor's Order - Just Me, Myself And I
TTITLE5=Doctor's Order feat Pete Gage - Stop Sneakin´ Around
TTITLE6=Doctor's Order - We Do Mean Business
TTITLE7=Doctor's Order feat Johnny Spence - Tore Down
TTITLE8=Doctor's Order - Great Mick Green
TTITLE9=Doctor's Order - Legato Grande
TTITLE10=Doctor's Order - Had Enuff
TTITLE11=Doctor's Order - So It Is (live)
TTITLE12=Doctor's Order - Big Bad Doc (live)
TTITLE13=Doctor's Order - Los Mas Rapidos (live)
TTITLE14=Doctor's Order - Great Balls Of Fire/Balinka/Whole Lotta Shakin´ (liv
TTITLE14=e)
TTITLE15=Doctor's Order - How Do You Sleep At Night (live)
TTITLE16=Doctor's Order - When The Shit Hits The Fan (live)
EXTD=
EXTT0=
EXTT1=
EXTT2=
EXTT3=
EXTT4=
EXTT5=
EXTT6=
EXTT7=
EXTT8=
EXTT9=
EXTT10=
EXTT11=
EXTT12=
EXTT13=
EXTT14=
EXTT15=
EXTT16=
PLAYORDER=
